<svg width="48" height="48" viewBox="0 0 48 48" fill="none" xmlns="http://www.w3.org/2000/svg">
<g clip-path="url(#clip0_2062_1079)">
<path d="M24 48C37.2548 48 48 37.2548 48 24C48 10.7452 37.2548 0 24 0C10.7452 0 0 10.7452 0 24C0 37.2548 10.7452 48 24 48Z" fill="white"/>
<path d="M47 24C47 36.7025 36.7025 47 24 47C11.2975 47 1 36.7025 1 24C1 11.2975 11.2975 1 24 1C36.7025 1 47 11.2975 47 24Z" fill="url(#paint0_linear_2062_1079)"/>
<path d="M22.5839 10.5501C23.3482 9.81732 24.6821 9.81598 25.4151 10.55L34.2611 19.4095C34.6692 19.8183 34.8731 20.0229 34.9496 20.2583C35.0168 20.4653 35.0168 20.688 34.9496 20.8949C34.8731 21.1304 34.6691 21.3351 34.2611 21.7437L33.7738 22.2317C33.3615 22.6447 33.1553 22.8516 32.9173 22.9289C32.708 22.9969 32.482 22.9969 32.2727 22.9289C32.0349 22.8515 31.8284 22.6445 31.4163 22.2317L26.0001 16.8064V36.3982C26.0001 36.9588 25.9997 37.2392 25.8907 37.4534C25.7949 37.6416 25.6421 37.7945 25.4542 37.8905C25.2403 37.9996 24.9602 38 24.4004 38H23.5996C23.0397 38 22.7597 37.9996 22.5459 37.8905C22.3579 37.7945 22.2052 37.6416 22.1093 37.4534C22.0003 37.2392 21.9999 36.9588 21.9999 36.3982V16.8064L16.5828 22.2317C16.1705 22.6447 15.9643 22.8516 15.7263 22.9289C15.5172 22.9968 15.2918 22.9968 15.0827 22.9289C14.8447 22.8516 14.6385 22.6447 14.2262 22.2317L13.7389 21.7437C13.3308 21.335 13.1269 21.1304 13.0504 20.8949C12.9832 20.6879 12.9832 20.4654 13.0504 20.2583C13.1269 20.0229 13.3308 19.8183 13.7389 19.4095L22.5839 10.5501Z" fill="white"/>
</g>
<defs>
<linearGradient id="paint0_linear_2062_1079" x1="24" y1="1" x2="24" y2="47" gradientUnits="userSpaceOnUse">
<stop stop-color="#0022CC"/>
<stop offset="1" stop-color="#0022CC" stop-opacity="0.8"/>
</linearGradient>
<clipPath id="clip0_2062_1079">
<rect width="48" height="48" fill="white"/>
</clipPath>
</defs>
</svg>
